<?xml version="1.0" standalone="no"?><!DOCTYPE svg PUBLIC "-//W3C//DTD SVG 1.1//EN" "http://www.w3.org/Graphics/SVG/1.1/DTD/svg11.dtd"><svg t="1626760349291" class="icon" viewBox="0 0 1024 1024" version="1.1" xmlns="http://www.w3.org/2000/svg" p-id="2047" xmlns:xlink="http://www.w3.org/1999/xlink" width="128" height="128"><defs><style type="text/css"></style></defs><path d="M832 426.666667h-1.066667C819.84 260.266667 681.173333 128 512 128S204.16 260.266667 193.066667 426.666667h-2.133334C156.16 426.666667 128 454.826667 128 489.6V618.666667c0 35.2 28.8 64 64 64h42.666667c35.2 0 64-28.8 64-64v-128a63.786667 63.786667 0 0 0-62.933334-63.786667C246.613333 283.733333 366.293333 170.666667 512 170.666667s265.386667 113.066667 276.266667 256.213333A63.786667 63.786667 0 0 0 725.333333 490.666667v128c0 26.026667 15.786667 48.426667 38.186667 58.453333-11.093333 34.346667-46.08 104.533333-148.906667 111.573333C605.44 764.16 582.186667 746.666667 554.666667 746.666667h-85.333334c-35.2 0-64 28.8-64 64s28.8 64 64 64h85.333334c28.16 0 51.626667-18.346667 60.373333-43.52 135.466667-8.106667 178.773333-106.88 191.146667-148.48H832c35.2 0 64-28.8 64-64v-128c0-35.2-28.8-64-64-64z m-576 64v128c0 11.733333-9.6 21.333333-21.333333 21.333333H192c-11.733333 0-21.333333-9.6-21.333333-21.333333v-129.066667c0-11.093333 9.173333-20.266667 20.266666-20.266667H234.666667c11.733333 0 21.333333 9.6 21.333333 21.333334z m298.666667 341.333333h-85.333334c-11.733333 0-21.333333-9.6-21.333333-21.333333s9.6-21.333333 21.333333-21.333334h85.333334c11.733333 0 21.333333 9.6 21.333333 21.333334s-9.6 21.333333-21.333333 21.333333z m298.666666-213.333333c0 11.733333-9.6 21.333333-21.333333 21.333333h-42.666667c-11.733333 0-21.333333-9.6-21.333333-21.333333v-128c0-11.733333 9.6-21.333333 21.333333-21.333334h42.666667c11.733333 0 21.333333 9.6 21.333333 21.333334v128z" p-id="2048" fill="#515151"></path></svg>