<?xml version="1.0" standalone="no"?><!DOCTYPE svg PUBLIC "-//W3C//DTD SVG 1.1//EN" "http://www.w3.org/Graphics/SVG/1.1/DTD/svg11.dtd"><svg t="1626760631520" class="icon" viewBox="0 0 1024 1024" version="1.1" xmlns="http://www.w3.org/2000/svg" p-id="6957" xmlns:xlink="http://www.w3.org/1999/xlink" width="128" height="128"><defs><style type="text/css"></style></defs><path d="M957.32802 404.482241c-3.798513-11.345396-13.607926-19.652596-25.465998-21.471011L661.929196 341.344249 541.312094 83.102696c-5.241374-11.214413-16.522302-18.402115-28.886911-18.435884l-0.063445 0c-12.364609 0-23.611767 7.123234-28.883841 18.307971L361.800651 340.607468 91.486132 381.348358c-11.851932 1.789763-21.696138 10.034541-25.52842 21.37482-3.837398 11.345396-0.994654 23.899316 7.346315 32.465412l196.158588 201.778586-46.814212 284.376793c-1.981121 12.076036 3.099594 24.215518 13.099343 31.280424 9.971096 7.058766 23.133883 7.79657 33.841759 1.916653l241.461377-132.830261 240.952794 133.659139c4.826935 2.622734 10.161431 3.963265 15.495926 3.963265l0.64366 0c17.668405 0 31.949666-14.286378 31.949666-31.954783 0-3.959172-0.701988-7.762801-2.01489-11.276834l-44.824905-278.276864 196.629309-200.945615C958.190667 428.347788 961.101973 415.823544 957.32802 404.482241L957.32802 404.482241zM957.32802 404.482241" p-id="6958" fill="#ff5000"></path></svg>