<?xml version="1.0" standalone="no"?><!DOCTYPE svg PUBLIC "-//W3C//DTD SVG 1.1//EN" "http://www.w3.org/Graphics/SVG/1.1/DTD/svg11.dtd"><svg t="1626528473095" class="icon" viewBox="0 0 1024 1024" version="1.1" xmlns="http://www.w3.org/2000/svg" p-id="7110" xmlns:xlink="http://www.w3.org/1999/xlink" width="128" height="128"><defs><style type="text/css"></style></defs><path d="M510.6 67.9c-244.2 0-442.2 198-442.2 442.2 0 103.9 35.9 199.5 95.9 275 51.5 64.7 120.7 114.6 200.2 142.5 45.7 16 94.8 24.7 146 24.7s100.3-8.7 146-24.7C737 899.4 806.8 848.7 858.4 783c59.1-75.2 94.3-170 94.3-273 0-244.1-197.9-442.1-442.1-442.1z m309.1 691.9l-161-62.8s-31.5-12.2-43.8-24.3c-7.9-7.7-7.3-26-0.3-49.3 7-23.3 91.7-118.1 91.7-204.1 0-132.9-87.4-240.7-195.2-240.7-107.7 0.1-195.1 107.8-195.1 240.8 0 82.4 75.5 180.7 84.8 198.6 9.3 17.9 7.1 45.1-0.3 53.3-11.1 12.4-51.4 24.8-51.4 24.8l-146.4 65.2c-55.9-68.5-89.5-155.9-89.5-251.2 0-219.4 177.9-397.3 397.3-397.3s397.3 177.9 397.3 397.3c0.1 94.6-33 181.4-88.1 249.7z" p-id="7111" fill="#dbdbdb"></path></svg>