<?xml version="1.0" standalone="no"?><!DOCTYPE svg PUBLIC "-//W3C//DTD SVG 1.1//EN" "http://www.w3.org/Graphics/SVG/1.1/DTD/svg11.dtd"><svg t="1626528714880" class="icon" viewBox="0 0 1024 1024" version="1.1" xmlns="http://www.w3.org/2000/svg" p-id="8082" xmlns:xlink="http://www.w3.org/1999/xlink" width="128" height="128"><defs><style type="text/css"></style></defs><path d="M268.2 957.9c-6.4 0-12.8-1.9-18.2-5.7-9.3-6.4-14.5-17.3-13.7-28.6l11.8-165.1c0.1-2-1.5-3.8-3-4.8-55.3-34.5-101.3-80-133-131.7C79 567.9 61.5 506.8 61.5 445.3c0-52.2 12.1-102.8 36-150.4 22.9-45.5 55.5-86.3 96.9-121.2 84.1-70.9 195.7-109.9 314.1-109.9s229.9 39 314.1 109.9c41.5 34.9 74.1 75.7 96.9 121.2 23.9 47.6 36 98.2 36 150.4 0 184-153.6 341.7-365.1 375.1-15.4 2.4-28.3 6.1-39.6 11.3L281.6 955c-4.3 1.9-8.8 2.9-13.4 2.9z m240.3-830c-211.2 0-383 142.4-383 317.5 0 50.4 13.9 98.6 41.2 143.2 26.5 43.3 65.3 81.6 112.2 110.8 22.2 13.8 34.8 38.2 33 63.6l-8 111.3L524 773.5c16.6-7.6 35-12.9 56.3-16.3 87.2-13.8 166.6-52.8 223.5-110 27.9-28 49.6-59.4 64.5-93.3 15.3-34.7 23.1-71.3 23.1-108.6 0.1-175-171.7-317.4-382.9-317.4zM280 760.7z" fill="#dbdbdb" p-id="8083"></path><path d="M320.1 447.1m-64 0a64 64 0 1 0 128 0 64 64 0 1 0-128 0Z" fill="#dbdbdb" p-id="8084"></path><path d="M512.1 447.1m-64 0a64 64 0 1 0 128 0 64 64 0 1 0-128 0Z" fill="#dbdbdb" p-id="8085"></path><path d="M704.1 447.1m-64 0a64 64 0 1 0 128 0 64 64 0 1 0-128 0Z" fill="#dbdbdb" p-id="8086"></path></svg>