<?xml version="1.0" standalone="no"?><!DOCTYPE svg PUBLIC "-//W3C//DTD SVG 1.1//EN" "http://www.w3.org/Graphics/SVG/1.1/DTD/svg11.dtd"><svg t="1626528243871" class="icon" viewBox="0 0 1024 1024" version="1.1" xmlns="http://www.w3.org/2000/svg" p-id="5691" xmlns:xlink="http://www.w3.org/1999/xlink" width="128" height="128"><defs><style type="text/css"></style></defs><path d="M718.2 78.2H305.8c-43 0-77.9 35-77.9 77.9v711.8c0 43 35 77.9 77.9 77.9h412.4c43 0 77.9-35 77.9-77.9V156.1c0-43-34.9-77.9-77.9-77.9z m-412.4 40h412.4c20.9 0 37.9 17 37.9 37.9v34.6H267.9v-34.6c0-20.9 17-37.9 37.9-37.9z m-37.9 112.5h488.3v510.2H267.9V230.7z m450.3 675.1H305.8c-20.9 0-37.9-17-37.9-37.9v-87h488.3v87c-0.1 20.9-17.1 37.9-38 37.9z" fill="#ffffff" p-id="5692"></path><path d="M439.4 161.7h145.1c8 0 14.5-6.5 14.5-14.5s-6.5-14.5-14.5-14.5H439.4c-8 0-14.5 6.5-14.5 14.5s6.5 14.5 14.5 14.5z" fill="#ffffff" p-id="5693"></path><path d="M512 844.2m-51.8 0a51.8 51.8 0 1 0 103.6 0 51.8 51.8 0 1 0-103.6 0Z" fill="#ffffff" p-id="5694"></path></svg>